<svg width="39" height="19" viewBox="0 0 39 19" fill="none" xmlns="http://www.w3.org/2000/svg">
<path d="M4.20739 1.54545V19H0.517045V1.54545H4.20739ZM7.10724 19V16.8352L13.5163 8.90057V8.80682H7.32884V5.90909H17.8885V8.26989L11.8714 16.0085V16.1023H18.1101V19H7.10724ZM20.8182 19V16.8352L27.2273 8.90057V8.80682H21.0398V5.90909H31.5994V8.26989L25.5824 16.0085V16.1023H31.821V19H20.8182ZM34.5973 19V5.90909H38.228V19H34.5973ZM36.4212 4.22159C35.8814 4.22159 35.4183 4.04261 35.032 3.68466C34.6513 3.32102 34.4609 2.88636 34.4609 2.38068C34.4609 1.88068 34.6513 1.4517 35.032 1.09375C35.4183 0.730113 35.8814 0.548295 36.4212 0.548295C36.9609 0.548295 37.4212 0.730113 37.8018 1.09375C38.1882 1.4517 38.3814 1.88068 38.3814 2.38068C38.3814 2.88636 38.1882 3.32102 37.8018 3.68466C37.4212 4.04261 36.9609 4.22159 36.4212 4.22159Z" fill="white"/>
</svg>
